<svg width="14" height="15" viewBox="0 0 14 15" fill="none" xmlns="http://www.w3.org/2000/svg">
<g id="heart-regular 1">
<path id="Vector" d="M6.17422 12.8502L6.10586 12.7873L1.31523 8.33847C0.475781 7.55917 0 6.46542 0 5.31972V5.22949C0 3.30449 1.36719 1.65292 3.25937 1.29199C4.33672 1.08417 5.43867 1.333 6.31641 1.95097C6.5625 2.12597 6.79219 2.32831 7 2.56074C7.11484 2.42949 7.23789 2.30917 7.36914 2.19706C7.47031 2.10956 7.57422 2.02753 7.68359 1.95097C8.56133 1.333 9.66328 1.08417 10.7406 1.28925C12.6328 1.65019 14 3.30449 14 5.22949V5.31972C14 6.46542 13.5242 7.55917 12.6848 8.33847L7.89414 12.7873L7.82578 12.8502C7.60156 13.058 7.30625 13.1756 7 13.1756C6.69375 13.1756 6.39844 13.0607 6.17422 12.8502ZM6.53789 4.01269C6.52695 4.00449 6.51875 3.99355 6.51055 3.98261L6.02383 3.43574L6.02109 3.433C5.38945 2.7248 4.43516 2.40214 3.50547 2.57988C2.23125 2.82324 1.3125 3.93339 1.3125 5.22949V5.31972C1.3125 6.09902 1.63789 6.8455 2.20938 7.37597L7 11.8248L11.7906 7.37597C12.3621 6.8455 12.6875 6.09902 12.6875 5.31972V5.22949C12.6875 3.93613 11.7688 2.82324 10.4973 2.57988C9.56758 2.40214 8.61055 2.72753 7.98164 3.433C7.98164 3.433 7.98164 3.433 7.97891 3.43574C7.97617 3.43847 7.97891 3.43574 7.97617 3.43847L7.48945 3.98535C7.48125 3.99628 7.47031 4.00449 7.46211 4.01542C7.33906 4.13847 7.17227 4.20683 7 4.20683C6.82773 4.20683 6.66094 4.13847 6.53789 4.01542V4.01269Z" fill="#252525"/>
</g>
</svg>
